<?xml version="1.0" encoding="UTF-8"?>
<!DOCTYPE svg PUBLIC "-//W3C//DTD SVG 1.1//EN" "http://www.w3.org/Graphics/SVG/1.1/DTD/svg11.dtd">
<!-- Creator: CorelDRAW -->
<svg xmlns="http://www.w3.org/2000/svg" xml:space="preserve" width="100%" height="100%" version="1.1" style="shape-rendering:geometricPrecision; text-rendering:geometricPrecision; image-rendering:optimizeQuality; fill-rule:evenodd; clip-rule:evenodd"
viewBox="0 0 29700 21000"
 xmlns:xlink="http://www.w3.org/1999/xlink"
 xmlns:xodm="http://www.corel.com/coreldraw/odm/2003">
 <defs>
  <style type="text/css">
   <![CDATA[
    .fil0 {fill:white}
   ]]>
  </style>
 </defs>
 <g id="Layer_x0020_1">
  <metadata id="CorelCorpID_0Corel-Layer"/>
  <path class="fil0" d="M14897.14 5057.07c-0.01,-185.73 -140.09,-216.78 -220.23,-219.35 -18.22,0.75 -36.42,1.59 -54.59,2.52 -2791.53,142.98 -5010.97,2451.69 -5010.96,5278.76 -0.01,2919.27 2366.52,5285.8 5285.77,5285.79 2860.31,0.01 5190,-2271.91 5282.92,-5109.63 -0.01,-5.79 -2.47,-176.14 -237.45,-176.16l-1443.26 0c-159.03,0.01 -170.63,163.96 -170.63,163.96 -71.23,1816.31 -1566.17,3266.9 -3399.91,3266.9 -1879.19,0.02 -3402.56,-1523.38 -3402.56,-3402.55 0,-1759.95 1336.2,-3207.81 3049.44,-3384.47 264.05,-41.65 313.77,-204.29 321.47,-288.43l-0.01 -51.08c0,0 0,-1106.1 0,-1366.26zm3169.17 4589.52c76,-78.21 192.21,-264.14 79.53,-610.3 -354.1,-1025.56 -1184.82,-1828.95 -2227.38,-2145.38 -0.12,-0.04 -0.23,-0.08 -0.37,-0.12 -6.04,-1.83 -12.1,-3.65 -18.18,-5.45 -279.18,-81.17 -438.9,-2.72 -520.19,69.05 -24.33,28.02 -47.84,56.76 -70.53,86.18 -248.14,321.85 -395.73,725.24 -395.73,1163.08 0,1052.99 853.61,1906.6 1906.6,1906.6 450.86,0 865.17,-156.5 1191.57,-418.13 18.51,-14.83 36.74,-30.01 54.68,-45.53z"/>
 </g>
</svg>
